<svg width="432" height="492" xmlns="http://www.w3.org/2000/svg" xmlns:xlink="http://www.w3.org/1999/xlink" xml:space="preserve" overflow="hidden"><g><path d="M304.733 291.653C304.733 173.531 400.49 77.7741 518.612 77.7741 636.734 77.7741 732.491 173.531 732.491 291.653 732.491 409.775 636.734 505.532 518.612 505.532 400.49 505.532 304.733 409.775 304.733 291.653Z" stroke="#0071BD" stroke-width="3.24059" stroke-miterlimit="8" stroke-dasharray="12.9624 9.72177" fill="#F2F2F2" fill-rule="evenodd" transform="matrix(1 0 0 1.00076 -302.376 -16.0384)"/><text fill="#004F84" font-family="Open Sans,Open Sans_MSFontService,sans-serif" font-weight="700" font-size="110" transform="matrix(0.235679 0 0 0.235858 146.878 254)">MITA State </text><text fill="#004F84" font-family="Open Sans,Open Sans_MSFontService,sans-serif" font-weight="700" font-size="110" transform="matrix(0.235679 0 0 0.235858 111.474 285)">Self</text><text fill="#004F84" font-family="Open Sans,Open Sans_MSFontService,sans-serif" font-weight="700" font-size="110" transform="matrix(0.235679 0 0 0.235858 159.003 285)">-</text><text fill="#004F84" font-family="Open Sans,Open Sans_MSFontService,sans-serif" font-weight="700" font-size="110" transform="matrix(0.235679 0 0 0.235858 167.375 285)">Assessment </text><text fill="#004F84" font-family="Open Sans,Open Sans_MSFontService,sans-serif" font-weight="700" font-size="110" transform="matrix(0.235679 0 0 0.235858 156.437 316)">Playbook</text><path d="M46.949 62.2665 0 62.2665 0 57.3225 2.49066 57.3225 2.49066 59.7759 44.4583 59.7759 44.4583 50.6102 46.949 50.6102 46.949 62.2665Z" fill="#004F84" transform="matrix(1.01507 0 0 1 359.02 244.821)"/><path d="M11.9925 5.29266C11.9754 4.80106 11.8873 4.31448 11.731 3.84807L11.4695 3.48693C11.422 3.40251 11.3924 3.30928 11.3823 3.21295L0 3.21295 0 58.6676 2.49066 58.6676 2.49066 5.70361 12.2042 5.70361C12.0791 5.60246 12.0023 5.4533 11.9925 5.29266Z" fill="#004F84" transform="matrix(1.01507 0 0 1 359.02 244.821)"/><path d="M34.1593 3.21295C34.2197 3.26487 34.274 3.32336 34.3214 3.3873 34.7697 4.02242 34.5329 4.99378 34.5207 5.70361L44.4833 5.70361 44.4833 22.3163 46.974 22.3163 46.974 3.21295Z" fill="#004F84" transform="matrix(1.01507 0 0 1 359.02 244.821)"/><path d="M33.6239 47.3848C26.3548 47.2954 20.5343 41.3301 20.6237 34.0607 20.7131 26.7916 26.6784 20.9711 33.9478 21.0605 41.1584 21.1492 46.9551 27.023 46.949 34.2341 46.8737 41.5337 40.924 47.4058 33.6239 47.3848ZM33.6239 23.5617C27.731 23.6853 23.0542 28.5631 23.178 34.456 23.3018 40.349 28.1794 45.0258 34.0723 44.902 39.877 44.78 44.5194 40.0402 44.5206 34.2341 44.4453 28.2836 39.5746 23.5132 33.6239 23.5617Z" fill="#004F84" transform="matrix(1.01507 0 0 1 359.02 244.821)"/><path d="M47.0838 39.732 49.5931 39.732 49.5931 54.7241 47.0838 54.7241Z" fill="#004F84" transform="matrix(0.705482 -0.708728 0.719409 0.695007 339.642 293.139)"/><path d="M12.1544 23.3126 8.39353 19.4272 10.1744 17.6837 12.0797 19.6513 16.7995 14.3462 18.6551 16.0025 12.1544 23.3126Z" fill="#004F84" transform="matrix(1.01507 0 0 1 359.02 244.821)"/><path d="M16.264 33.9353 8.58033 33.9353 8.58033 26.2515 16.264 26.2515ZM11.071 31.4446 13.7734 31.4446 13.7734 28.7421 11.071 28.7421Z" fill="#004F84" transform="matrix(1.01507 0 0 1 359.02 244.821)"/><path d="M16.264 45.5916 8.58033 45.5916 8.58033 37.8953 16.264 37.8953ZM11.071 43.1009 13.7734 43.1009 13.7734 40.386 11.071 40.386Z" fill="#004F84" transform="matrix(1.01507 0 0 1 359.02 244.821)"/><path d="M36.1146 8.95393 9.96265 8.95393 9.96265 0 36.1146 0ZM12.4533 6.46327 33.6239 6.46327 33.6239 2.49066 12.4533 2.49066Z" fill="#004F84" transform="matrix(1.01507 0 0 1 359.02 244.821)"/><g><g><g><g><g><path d="M634.203 420.2C619.11 420.2 606.874 407.963 606.874 392.868 606.874 377.775 619.11 365.538 634.203 365.538 649.299 365.538 661.535 377.775 661.535 392.868 661.519 407.956 649.292 420.183 634.203 420.2ZM634.203 368.166C620.562 368.166 609.502 379.227 609.502 392.868 609.502 406.511 620.562 417.572 634.203 417.572 647.847 417.572 658.907 406.511 658.907 392.868 658.891 379.231 647.84 368.18 634.203 368.166Z" fill="#004F84" fill-rule="evenodd" transform="matrix(1 0 0 1.00076 -302.376 -16.0384)"/><path d="M667.781 427.758C667.432 427.758 667.097 427.616 666.854 427.369L652.028 412.523C651.523 412.017 651.523 411.201 652.028 410.697 652.534 410.188 653.362 410.186 653.873 410.69 653.875 410.692 653.878 410.695 653.883 410.697L668.707 425.542C669.218 426.047 669.223 426.867 668.714 427.374 668.469 427.621 668.132 427.76 667.781 427.758Z" fill="#004F84" fill-rule="evenodd" transform="matrix(1 0 0 1.00076 -302.376 -16.0384)"/></g></g></g></g></g><g><g><g><path d="M374.805 422.116 372.253 422.116 372.253 412.403 382.069 412.403 382.069 414.956 374.805 414.956 374.805 422.116Z" fill="#004F84" transform="matrix(1 0 0 1.00076 -302.376 -16.0384)"/><path d="M370.721 409.252C363.665 393.697 370.554 375.369 386.109 368.312 386.139 368.298 386.172 368.284 386.203 368.27 398.024 362.967 411.894 365.546 421.022 374.739L424.849 378.569 423.037 380.382 419.21 376.552C410.824 368.124 398.095 365.769 387.249 370.643 372.958 377.084 366.594 393.893 373.035 408.185 373.04 408.192 373.042 408.199 373.045 408.206Z" fill="#004F84" transform="matrix(1 0 0 1.00076 -302.376 -16.0384)"/><path d="M399.12 427.758C390.81 427.765 382.842 424.454 376.988 418.557L373.16 414.727 374.959 412.915 378.788 416.744C387.153 425.165 399.858 427.534 410.695 422.691 425.012 416.268 431.411 399.455 424.986 385.14 424.979 385.123 424.972 385.107 424.965 385.09L427.286 384.044C434.338 399.608 427.435 417.942 411.873 424.991 411.845 425.003 411.819 425.014 411.793 425.026 407.812 426.832 403.49 427.762 399.12 427.758Z" fill="#004F84" transform="matrix(1 0 0 1.00076 -302.376 -16.0384)"/><path d="M425.846 380.893 416.03 380.893 416.03 378.341 423.292 378.341 423.292 371.181 425.846 371.181 425.846 380.893Z" fill="#004F84" transform="matrix(1 0 0 1.00076 -302.376 -16.0384)"/><path d="M399.005 405.194C394.282 405.173 390.471 401.326 390.492 396.603 390.513 391.88 394.36 388.069 399.08 388.091 403.789 388.112 407.595 391.935 407.595 396.641 407.574 401.371 403.735 405.194 399.005 405.194ZM399.005 390.655C395.691 390.676 393.023 393.379 393.045 396.693 393.066 400.007 395.769 402.674 399.08 402.653 402.385 402.632 405.048 399.945 405.041 396.641 405.015 393.327 402.319 390.655 399.005 390.655Z" fill="#004F84" transform="matrix(1 0 0 1.00076 -302.376 -16.0384)"/><path d="M401.557 416.82 396.453 416.82C395.811 416.827 395.265 416.356 395.175 415.722L394.602 411.894C393.45 411.545 392.34 411.065 391.296 410.464L388.119 412.825C387.612 413.202 386.908 413.153 386.46 412.71L382.835 409.111C382.38 408.663 382.326 407.951 382.708 407.44L385.081 404.286C384.506 403.252 384.046 402.156 383.714 401.02L379.783 400.457C379.154 400.362 378.692 399.818 378.699 399.182L378.699 394.077C378.692 393.441 379.154 392.896 379.783 392.799L383.714 392.34C384.046 391.204 384.506 390.108 385.081 389.073L382.708 385.92C382.326 385.411 382.38 384.697 382.835 384.249L386.46 380.65C386.908 380.207 387.612 380.158 388.119 380.535L391.296 382.896C392.342 382.307 393.457 381.85 394.614 381.529L395.175 377.638C395.265 377.004 395.811 376.533 396.453 376.54L401.557 376.54C402.198 376.533 402.745 377.004 402.835 377.638L403.407 381.466C404.56 381.798 405.668 382.26 406.714 382.844L409.905 380.483C410.409 380.108 411.114 380.155 411.564 380.598L415.163 384.185C415.613 384.636 415.663 385.35 415.279 385.856L412.903 388.996C413.494 390.054 413.961 391.176 414.296 392.34L418.213 392.903C418.847 392.993 419.318 393.537 419.311 394.178L419.311 399.283C419.318 399.924 418.847 400.471 418.213 400.56L414.296 401.121C413.963 402.26 413.502 403.358 412.917 404.388L415.29 407.541C415.613 408.031 415.561 408.68 415.163 409.111L411.55 412.762C411.105 413.209 410.4 413.263 409.891 412.889L406.7 410.515C405.658 411.1 404.548 411.56 403.396 411.88L402.821 415.71C402.738 416.344 402.198 416.82 401.557 416.82ZM397.537 414.267 400.459 414.267 400.996 410.617C401.072 410.094 401.463 409.674 401.979 409.559 403.438 409.229 404.833 408.656 406.101 407.859 406.535 407.562 407.108 407.562 407.544 407.859L410.53 410.082 412.611 408.09 410.365 405.104C410.061 404.666 410.061 404.086 410.365 403.648 411.164 402.392 411.743 401.006 412.073 399.552 412.189 399.036 412.611 398.647 413.134 398.569L416.808 398.046 416.808 395.213 413.134 394.675C412.615 394.6 412.194 394.216 412.073 393.707 411.743 392.253 411.164 390.867 410.365 389.608 410.061 389.172 410.061 388.593 410.365 388.154L412.611 385.206 410.556 383.165 407.506 385.385C407.072 385.677 406.507 385.677 406.075 385.385 404.798 384.586 403.396 384.006 401.927 383.674 401.411 383.558 401.022 383.137 400.945 382.616L400.421 378.977 397.537 378.977 397.013 382.616C396.943 383.144 396.549 383.57 396.031 383.688 394.565 384.009 393.165 384.581 391.897 385.385 391.461 385.682 390.888 385.682 390.454 385.385L387.48 383.177 385.425 385.206 387.633 388.154C387.956 388.578 387.982 389.158 387.697 389.608 386.896 390.867 386.318 392.253 385.986 393.707 385.863 394.221 385.439 394.607 384.914 394.675L381.251 395.213 381.251 398.083 384.914 398.607C385.442 398.68 385.868 399.071 385.986 399.589 386.318 401.044 386.896 402.429 387.697 403.688 387.963 404.129 387.94 404.687 387.633 405.104L385.425 408.09 387.48 410.12 390.454 407.911C390.888 407.614 391.461 407.614 391.897 407.911 393.169 408.684 394.562 409.24 396.019 409.559 396.533 409.674 396.924 410.094 397.002 410.617Z" fill="#004F84" transform="matrix(1 0 0 1.00076 -302.376 -16.0384)"/></g></g></g><path d="M23.8505 6.70486 26.3246 6.70486 26.3246 33.6727 23.8505 33.6727Z" fill="#004F84" transform="matrix(0.00383971 -1.01235 0.999992 0.00388716 76.3459 175.719)"/><path d="M23.8505 16.391 26.3247 16.391 26.3247 43.1981 23.8505 43.1981Z" fill="#004F84" transform="matrix(0.0048869 -1.01235 0.999988 0.00494729 66.7114 185.374)"/><path d="M23.8505 26.003 26.3247 26.003 26.3247 52.8101 23.8505 52.8101Z" fill="#004F84" transform="matrix(0.0048869 -1.01235 0.999988 0.00494729 57.098 195.055)"/><path d="M23.8505 35.5406 26.3246 35.5406 26.3246 62.5085 23.8505 62.5085Z" fill="#004F84" transform="matrix(0.00383971 -1.01235 0.999992 0.00388716 47.5106 204.798)"/><path d="M48.9503 61.5064 1.23706 61.5064C0.553849 61.5064 0 60.9525 0 60.2693L0 1.23706C-2.74682e-16 0.553849 0.553849 -1.37341e-16 1.23706 -1.37341e-16L36.3943 0C36.7186 0.00136648 37.0297 0.130208 37.2602 0.358746L49.8162 12.9272C50.0493 13.1556 50.1827 13.4669 50.1874 13.7932L50.1874 60.2693C50.1874 60.9525 49.6336 61.5064 48.9503 61.5064ZM2.47411 59.0325 47.7133 59.0325 47.7133 14.3128 35.8746 2.47411 2.47411 2.47411Z" fill="#004F84" transform="matrix(1 0 0 1.01236 71.5357 129.958)"/><path d="M48.9503 15.0303 36.3943 15.0303C35.7111 15.0303 35.1572 14.4764 35.1572 13.7932L35.1572 1.23706 37.6314 1.23706 37.6314 12.5561 48.9503 12.5561Z" fill="#004F84" transform="matrix(1 0 0 1.01236 71.5357 129.958)"/><path d="M49.8231 25.0532 36.1296 25.0532 36.1296 22.355 49.8231 22.355C54.1782 22.5352 57.855 19.1507 58.0351 14.7956 58.2154 10.4405 54.8308 6.7639 50.4757 6.58372 50.2584 6.57472 50.0406 6.57472 49.8231 6.58372L7.37971 6.58372 7.37971 3.88548 49.8231 3.88548C55.6686 3.67676 60.5762 8.24611 60.785 14.0915 60.9935 19.9367 56.4242 24.8446 50.5791 25.0532 50.3272 25.0624 50.075 25.0624 49.8231 25.0532Z" fill="#004F84" transform="matrix(1 0 0 1.00639 185.338 424.309)"/><path d="M54.2347 43.5363 11.8048 43.5363C5.9558 43.5363 1.21421 38.7947 1.21421 32.9456 1.21421 27.0965 5.9558 22.355 11.8048 22.355L25.4984 22.355 25.4984 25.0532 11.8048 25.0532C7.446 25.0532 3.91246 28.5867 3.91246 32.9456 3.91246 37.3045 7.446 40.838 11.8048 40.838L54.2347 40.838Z" fill="#004F84" transform="matrix(1 0 0 1.00639 185.338 424.309)"/><path d="M10.6311 5.31556C10.6311 8.25125 8.25125 10.6311 5.31556 10.6311 2.37984 10.6311 7.71974e-08 8.25125 7.71974e-08 5.31556 7.71974e-08 2.37984 2.37984 7.71974e-08 5.31556 7.71974e-08 8.25125 7.71974e-08 10.6311 2.37984 10.6311 5.31556Z" fill="#004F84" transform="matrix(1 0 0 1.00639 185.338 424.309)"/><path d="M30.8141 30.3687C27.1333 30.3687 24.1493 27.385 24.1493 23.7041 24.1493 20.0233 27.1333 17.0394 30.8141 17.0394 34.4947 17.0394 37.4787 20.0233 37.4787 23.7041 37.4787 27.385 34.4947 30.3687 30.8141 30.3687ZM30.8141 19.7512C28.6235 19.7512 26.8476 21.527 26.8476 23.7176 26.8476 25.9082 28.6235 27.6841 30.8141 27.6841 33.0048 27.6841 34.7804 25.9082 34.7804 23.7176 34.7804 23.7131 34.7804 23.7086 34.7804 23.7041 34.7731 21.5188 32.9993 19.7512 30.8141 19.7512Z" fill="#004F84" transform="matrix(1 0 0 1.00639 185.338 424.309)"/><path d="M61.574 42.0251C61.574 44.961 59.1941 47.3409 56.2585 47.3409 53.3229 47.3409 50.943 44.961 50.943 42.0251 50.943 39.0895 53.3229 36.7096 56.2585 36.7096 59.1941 36.7096 61.574 39.0895 61.574 42.0251Z" fill="#004F84" transform="matrix(1 0 0 1.00639 185.338 424.309)"/><path d="M636.588 158.073 639.124 158.073 639.124 161.713 636.588 161.713Z" fill="#004F84" transform="matrix(1 0 0 1.00076 -302.376 -16.0384)"/><path d="M625.771 163.749 627.56 161.951 630.032 164.41 628.243 166.209Z" fill="#004F84" transform="matrix(1 0 0 1.00076 -302.376 -16.0384)"/><path d="M622.042 172.709 625.53 172.709 625.53 175.245 622.042 175.245Z" fill="#004F84" transform="matrix(1 0 0 1.00076 -302.376 -16.0384)"/><path d="M634.724 186.241 632.188 186.241 632.188 184.49C632.219 183.274 631.762 182.096 630.92 181.218 626.907 177.42 626.732 171.086 630.531 167.073 632.44 165.055 635.104 163.922 637.882 163.945L638.693 163.945 638.693 166.481 637.807 166.481C633.673 166.445 630.293 169.766 630.258 173.898 630.239 175.999 631.107 178.012 632.646 179.443 633.979 180.789 634.712 182.62 634.675 184.516Z" fill="#004F84" transform="matrix(1 0 0 1.00076 -302.376 -16.0384)"/><path d="M645.954 164.413 648.464 161.918 650.253 163.716 647.743 166.211Z" fill="#004F84" transform="matrix(1 0 0 1.00076 -302.376 -16.0384)"/><path d="M647.437 183.097 649.226 181.298 651.698 183.757 649.909 185.556Z" fill="#004F84" transform="matrix(1 0 0 1.00076 -302.376 -16.0384)"/><path d="M624.981 183.797 627.491 181.302 629.28 183.101 626.77 185.596Z" fill="#004F84" transform="matrix(1 0 0 1.00076 -302.376 -16.0384)"/><path d="M650.463 172.709 653.925 172.709 653.925 175.245 650.463 175.245Z" fill="#004F84" transform="matrix(1 0 0 1.00076 -302.376 -16.0384)"/><path d="M639.049 195.663 635.384 195.663C635.153 195.661 634.924 195.6 634.724 195.486L633.812 194.928 632.935 194.928 632.935 192.391 634.203 192.391C634.432 192.392 634.656 192.453 634.851 192.569L635.778 193.127 639.087 193.127Z" fill="#004F84" transform="matrix(1 0 0 1.00076 -302.376 -16.0384)"/><path d="M640.635 195.663 636.97 195.663 636.97 193.127 640.279 193.127 641.205 192.569C641.401 192.453 641.625 192.392 641.851 192.391L643.119 192.391 643.119 194.928 642.245 194.928 641.333 195.486C641.121 195.607 640.878 195.668 640.635 195.663Z" fill="#004F84" transform="matrix(1 0 0 1.00076 -302.376 -16.0384)"/><path d="M631.908 188.346 638.834 188.346 638.834 190.882 631.908 190.882Z" fill="#004F84" transform="matrix(1 0 0 1.00076 -302.376 -16.0384)"/><path d="M637.159 188.346 644.083 188.346 644.083 190.882 637.159 190.882Z" fill="#004F84" transform="matrix(1 0 0 1.00076 -302.376 -16.0384)"/><path d="M643.767 186.241 641.231 186.241 641.231 184.49C641.194 182.597 641.919 180.768 643.246 179.417 646.272 176.603 646.444 171.868 643.63 168.842 642.2 167.304 640.187 166.438 638.085 166.456L637.211 166.456 637.211 163.92 638.085 163.92C643.619 163.884 648.132 168.34 648.17 173.874 648.186 176.638 647.062 179.286 645.061 181.193 644.217 182.07 643.76 183.249 643.793 184.465Z" fill="#004F84" transform="matrix(1 0 0 1.00076 -302.376 -16.0384)"/><path d="M609.372 188.726C606.398 181.495 606.28 173.403 609.042 166.088L611.413 166.989C608.889 173.694 608.993 181.106 611.705 187.737Z" fill="#004F84" transform="matrix(1 0 0 1.00076 -302.376 -16.0384)"/><path d="M637.984 207.838C633.305 207.849 628.686 206.795 624.477 204.757L625.594 202.474C633.378 206.222 642.443 206.245 650.248 202.537L651.337 204.82C647.17 206.819 642.605 207.85 637.984 207.838Z" fill="#004F84" transform="matrix(1 0 0 1.00076 -302.376 -16.0384)"/><path d="M666.595 188.815 664.262 187.838C667.041 181.131 667.137 173.612 664.528 166.837L666.899 165.911C669.741 173.302 669.631 181.502 666.595 188.815Z" fill="#004F84" transform="matrix(1 0 0 1.00076 -302.376 -16.0384)"/><path d="M623.577 152.594 622.309 150.413C631.665 144.932 643.204 144.73 652.747 149.88L651.479 152.113C642.73 147.394 632.155 147.577 623.577 152.594Z" fill="#004F84" transform="matrix(1 0 0 1.00076 -302.376 -16.0384)"/><path d="M668.98 208.105 653.531 208.105 653.531 201.84C653.531 199.671 657.87 198.415 658.365 198.276L658.985 200.724C657.915 200.988 656.906 201.462 656.018 202.119L656.018 205.568 666.392 205.568 666.392 202.119C665.476 201.444 664.432 200.96 663.324 200.698L664.059 198.251C664.262 198.251 669.018 199.582 669.018 201.84Z" fill="#004F84" transform="matrix(1 0 0 1.00076 -302.376 -16.0384)"/><path d="M661.255 201.586C658.464 201.629 656.161 199.407 656.107 196.615L656.107 195.055C656.249 192.215 658.664 190.027 661.504 190.167 664.149 190.299 666.26 192.412 666.392 195.055L666.392 196.615C666.336 199.401 664.043 201.621 661.255 201.586ZM661.255 192.645C659.89 192.647 658.756 193.695 658.643 195.055L658.643 196.615C658.745 198.054 659.991 199.14 661.431 199.039 662.73 198.948 663.765 197.914 663.857 196.615L663.857 195.055C663.75 193.696 662.617 192.647 661.255 192.645Z" fill="#004F84" transform="matrix(1 0 0 1.00076 -302.376 -16.0384)"/><path d="M622.436 163.882 606.987 163.882 606.987 157.617C606.987 155.448 611.338 154.192 611.833 154.053L612.493 156.5C611.42 156.765 610.411 157.239 609.525 157.896L609.525 161.345 619.898 161.345 619.898 157.896C618.981 157.22 617.937 156.737 616.829 156.475L617.477 154.027C617.68 154.027 622.436 155.296 622.436 157.617Z" fill="#004F84" transform="matrix(1 0 0 1.00076 -302.376 -16.0384)"/><path d="M614.713 157.363C611.958 157.364 609.707 155.169 609.638 152.417L609.638 150.832C609.78 147.991 612.196 145.803 615.038 145.944 617.68 146.076 619.794 148.189 619.924 150.832L619.924 152.417C619.855 155.218 617.529 157.432 614.727 157.363 614.722 157.363 614.717 157.363 614.713 157.363ZM614.713 148.485C613.353 148.459 612.2 149.479 612.061 150.832L612.061 152.417C612.163 153.856 613.409 154.942 614.849 154.841 616.148 154.751 617.183 153.716 617.274 152.417L617.274 150.832C617.164 149.491 616.056 148.45 614.713 148.422Z" fill="#004F84" transform="matrix(1 0 0 1.00076 -302.376 -16.0384)"/><path d="M622.436 208.105 606.987 208.105 606.987 201.84C606.987 199.671 611.338 198.415 611.833 198.276L612.493 200.724C611.42 200.988 610.411 201.462 609.525 202.119L609.525 205.568 619.898 205.568 619.898 202.119C618.981 201.444 617.937 200.96 616.829 200.698L617.477 198.251C617.68 198.251 622.436 199.582 622.436 201.84Z" fill="#004F84" transform="matrix(1 0 0 1.00076 -302.376 -16.0384)"/><path d="M614.713 201.586C611.91 201.65 609.589 199.431 609.525 196.63 609.525 196.625 609.525 196.62 609.525 196.615L609.525 195.055C609.667 192.215 612.083 190.027 614.922 190.167 617.564 190.299 619.678 192.412 619.81 195.055L619.81 196.615C619.754 199.386 617.484 201.6 614.713 201.586ZM614.713 192.645C613.374 192.68 612.278 193.72 612.174 195.055L612.174 196.615C612.276 198.054 613.525 199.14 614.962 199.039 616.263 198.948 617.298 197.914 617.388 196.615L617.388 195.055C617.274 193.67 616.101 192.614 614.713 192.645Z" fill="#004F84" transform="matrix(1 0 0 1.00076 -302.376 -16.0384)"/><path d="M668.98 163.882 653.531 163.882 653.531 157.617C653.531 155.448 657.87 154.192 658.365 154.053L658.985 156.5C657.915 156.765 656.906 157.239 656.018 157.896L656.018 161.345 666.392 161.345 666.392 157.896C665.476 157.22 664.432 156.737 663.324 156.475L664.059 154.027C664.262 154.027 669.018 155.296 669.018 157.617Z" fill="#004F84" transform="matrix(1 0 0 1.00076 -302.376 -16.0384)"/><path d="M661.255 157.363C658.474 157.405 656.176 155.199 656.107 152.417L656.107 150.832C656.249 147.991 658.664 145.803 661.504 145.944 664.149 146.076 666.26 148.189 666.392 150.832L666.392 152.417C666.322 155.194 664.033 157.399 661.255 157.363ZM661.255 148.485C659.89 148.487 658.756 149.535 658.643 150.895L658.643 152.417C658.745 153.856 659.991 154.942 661.431 154.841 662.73 154.751 663.765 153.716 663.857 152.417L663.857 150.832C663.75 149.473 662.617 148.424 661.255 148.422Z" fill="#004F84" transform="matrix(1 0 0 1.00076 -302.376 -16.0384)"/><g><g><g><path d="M35.1907 38.6751 45.5409 38.6751 45.5409 41.2466 35.1907 41.2466Z" fill="#004F84" transform="matrix(0.702179 -0.712138 0.703161 0.711144 7.34376 285.374)"/><path d="M39.0872 34.7927 41.6587 34.7927 41.6587 45.1431 39.0872 45.1431Z" fill="#004F84" transform="matrix(0.70327 -0.711006 0.702042 0.712248 7.34376 285.285)"/><path d="M7.9599 61.4816 6.68224 61.4816C3.01297 61.5028 0.0212798 58.5453 0.000110592 54.8763 3.66672e-05 54.8633-1.88873e-07 54.8506 2.43735e-08 54.8376L2.55535 54.8376C2.55533 57.0907 4.37807 58.9193 6.63112 58.9262L6.63112 49.6121 9.18647 49.6121 9.18647 60.204C9.18701 60.8901 8.64549 61.4541 7.9599 61.4816Z" fill="#004F84" transform="matrix(1 0 0 1.01277 23.674 244.821)"/><path d="M57.4954 45.4086C56.7895 45.4086 56.2175 44.8366 56.2175 44.1307 56.2175 42.1887 53.3045 40.566 50.5574 40.0294 49.9529 39.9061 49.523 39.3686 49.5353 38.7518L49.5353 1.27767C49.5362 0.882237 49.7203 0.509527 50.0338 0.268311 50.3321 0.0206031 50.7269-0.0781069 51.1068-8.37708e-09 54.7228 0.958255 58.773 4.45907 58.773 7.93435L58.773 44.0925C58.7942 44.7977 58.2394 45.3869 57.534 45.4078 57.5213 45.4083 57.5083 45.4086 57.4954 45.4086ZM52.0908 37.7424C53.576 38.144 54.975 38.8152 56.2175 39.7228L56.2175 7.97267C56.2175 6.36282 54.3394 4.26742 52.0908 3.13029Z" fill="#004F84" transform="matrix(1 0 0 1.01277 23.674 244.821)"/><path d="M1.27767 56.1155C0.572034 56.1155 0 55.5435 0 54.8376L0 14.6677C0.00703048 11.0083 2.97177 8.04359 6.63112 8.03657L50.749 8.03657 50.749 10.5919 6.63112 10.5919C4.38012 10.5919 2.55535 12.4167 2.55535 14.6677L2.55535 49.548C3.78498 48.6498 5.27474 48.179 6.79722 48.2065L52.078 48.2065C54.1876 48.3807 56.0391 46.8115 56.213 44.7017 56.2288 44.5118 56.2305 44.3209 56.2175 44.1307L56.2175 42.8531 58.773 42.8531 58.773 44.1307C58.9097 47.6565 56.1626 50.6253 52.6368 50.762 52.4719 50.7684 52.3066 50.7684 52.1419 50.762L6.79722 50.762C4.6306 50.5909 2.73558 52.2088 2.56459 54.3752 2.55245 54.5291 2.54934 54.6835 2.55535 54.8376 2.55535 55.5435 1.9833 56.1155 1.27767 56.1155Z" fill="#004F84" transform="matrix(1 0 0 1.01277 23.674 244.821)"/><path d="M14.0544 23.6497C11.2318 23.6497 8.9437 21.3615 8.9437 18.539 8.9437 15.7165 11.2318 13.4283 14.0544 13.4283 16.8769 13.4283 19.1651 15.7165 19.1651 18.539 19.1651 21.3615 16.8769 23.6497 14.0544 23.6497ZM14.0544 15.9837C12.6431 15.9837 11.499 17.1277 11.499 18.539 11.499 19.9503 12.6431 21.0944 14.0544 21.0944 15.4657 21.0944 16.6098 19.9503 16.6098 18.539 16.6309 17.128 15.5042 15.9668 14.093 15.9456 14.0802 15.9455 14.0673 15.9453 14.0544 15.9453Z" fill="#004F84" transform="matrix(1 0 0 1.01277 23.674 244.821)"/><path d="M32.0823 40.6556 28.2495 40.6556 28.2495 38.1001 32.0823 38.1001ZM25.694 40.6556 21.861 40.6556 21.861 38.1001 25.694 38.1001ZM19.3056 40.6556 18.028 40.6556C16.894 40.6584 15.7904 40.2903 14.8849 39.6078L16.4309 37.5892C16.9007 37.9472 17.4755 38.1404 18.0663 38.1386L19.344 38.1386ZM13.0195 36.8225C12.8924 36.3648 12.8278 35.8921 12.8278 35.4172L12.8278 32.6574 15.3832 32.6574 15.3832 35.4172C15.3848 35.659 15.4192 35.8998 15.4854 36.1327ZM15.9198 31.0347 13.8627 29.5143C14.856 28.1915 16.4121 27.4111 18.0663 27.406L18.2068 27.406 18.2068 29.9614 18.0663 29.9614C17.2204 29.9553 16.4224 30.3541 15.9198 31.0347ZM37.3719 29.9614 33.5388 29.9614 33.5388 27.406 37.3719 27.406ZM30.9836 29.9614 27.1505 29.9614 27.1505 27.406 30.9836 27.406ZM24.5952 29.9614 20.7622 29.9614 20.7622 27.406 24.5952 27.406ZM40.4895 29.1948 39.2118 27.0227C39.9651 26.5613 40.443 25.7586 40.4895 24.8762L43.0447 25.0169C42.941 26.7477 41.9832 28.3138 40.4895 29.1948ZM40.4895 22.4232C40.4673 21.54 40.0139 20.7237 39.2757 20.2383L40.6811 18.1046C42.1237 19.051 43.0077 20.6471 43.0447 22.372ZM37.5508 19.7911 33.7177 19.7911 33.7177 17.2358 37.5508 17.2358ZM31.1624 19.7911 27.3294 19.7911 27.3294 17.2358 31.1624 17.2358ZM24.7741 19.7911 20.941 19.7911 20.941 17.2358 24.7741 17.2358Z" fill="#004F84" transform="matrix(1 0 0 1.01277 23.674 244.821)"/></g></g></g><path d="M506.699 131.6C506.364 131.599 506.046 131.464 505.815 131.227 505.414 130.842 505.317 130.237 505.577 129.746L513.354 113.93C513.477 113.681 513.677 113.479 513.927 113.357L529.694 105.63C530.172 105.394 530.747 105.489 531.124 105.866 531.542 106.239 531.659 106.845 531.412 107.347L523.634 123.114C523.512 123.363 523.312 123.564 523.062 123.686L507.295 131.463C507.111 131.558 506.906 131.605 506.699 131.6ZM515.409 115.423 509.423 127.593 521.593 121.62 527.566 109.45Z" fill="#004F84" transform="matrix(1 0 0 1.00076 -302.376 -16.0384)"/><path d="M513.587 115.405 515.348 113.645 523.389 121.688 521.629 123.448Z" fill="#004F84" transform="matrix(1 0 0 1.00076 -302.376 -16.0384)"/><path d="M518.494 149.656C501.313 149.656 487.385 135.728 487.385 118.547 487.385 101.365 501.313 87.437 518.494 87.437 535.675 87.437 549.604 101.365 549.604 118.547 549.604 135.728 535.675 149.656 518.494 149.656ZM518.494 89.9258C502.687 89.9258 489.873 102.74 489.873 118.547 489.873 134.353 502.687 147.168 518.494 147.168 534.301 147.168 547.115 134.353 547.115 118.547 547.115 102.74 534.301 89.9258 518.494 89.9258Z" fill="#004F84" transform="matrix(1 0 0 1.00076 -302.376 -16.0384)"/><path d="M516.503 142.626 515.706 142.538C504.589 141.272 495.82 132.5 494.552 121.384L494.464 120.587 497.738 118.547 494.415 116.556 494.502 115.759C495.77 104.643 504.54 95.8712 515.657 94.6047L516.453 94.5175 518.494 97.7904 520.498 94.4678 521.294 94.555C532.411 95.8215 541.183 104.593 542.449 115.71L542.548 116.506 539.251 118.547 542.585 120.55 542.486 121.347C541.218 132.463 532.449 141.235 521.332 142.501L520.535 142.588 518.494 139.303ZM518.494 134.462 521.791 139.963C531.157 138.562 538.51 131.21 539.91 121.844L534.41 118.547 539.91 115.249C538.51 105.884 531.157 98.5311 521.791 97.1307L518.494 102.631 515.197 97.1307C505.831 98.5311 498.478 105.884 497.078 115.249L502.579 118.547 497.078 121.844C498.478 131.21 505.831 138.562 515.197 139.963Z" fill="#004F84" transform="matrix(1 0 0 1.00076 -302.376 -16.0384)"/><path d="M0 10.4699C20.743 25.7683 8.04548 16.0962 29.6918 24.4809 49.5687 24.0618 65.3864 18.2922 94.7897 0" stroke="#0071BD" stroke-width="3.24105" stroke-miterlimit="8" stroke-dasharray="12.9642 9.72315" fill="none" fill-rule="evenodd" transform="matrix(0.432445 -0.902187 -0.901503 -0.432773 77.4513 119.717)"/><path d="M587.598 325.744 592.698 325.27 592.601 325.282 597.833 324.481 597.739 324.497 600.233 323.965 600.911 327.132 598.371 327.677 593.047 328.494 587.899 328.973ZM609.429 321.507 613.315 320.168 613.214 320.206 618.255 318.087 618.149 318.136 621.166 316.604 622.634 319.494 619.565 321.052 614.42 323.215 610.485 324.57ZM629.235 311.648 629.403 311.528 629.341 311.575 631.366 309.982 631.3 310.036 633.214 308.36 633.147 308.424 634.943 306.666 634.875 306.736 636.544 304.896 636.478 304.976 638.007 303.055 637.941 303.142 638.047 302.989 640.713 304.832 640.576 305.03 638.978 307.036 637.244 308.947 635.382 310.771 633.402 312.504 631.314 314.146 631.114 314.29ZM642.365 294.879 643.015 292.756 642.98 292.886 643.503 290.475 643.48 290.609 643.803 288.113 643.791 288.25 643.906 285.674 643.906 285.808 643.805 283.15 643.814 283.279 643.753 282.766 646.97 282.381 647.041 282.959 647.147 285.749 647.027 288.462 646.685 291.092 646.133 293.637 645.464 295.829ZM640.963 274.248 640.963 274.246 641.012 274.328 640.1 272.95 640.152 273.023 639.127 271.641 639.174 271.703 638.043 270.322 638.087 270.376 636.848 268.99 636.89 269.035 635.551 267.647 635.589 267.684 634.154 266.292 634.187 266.325 632.7 264.965 634.887 262.573 636.393 263.949 637.863 265.377 639.242 266.808 640.524 268.241 641.705 269.678 642.78 271.125 643.741 272.579 643.767 272.624ZM625.278 258.962 621.884 256.468 621.915 256.49 617.713 253.544 617.734 253.56 614.736 251.529 616.553 248.844 619.563 250.883 623.789 253.848 627.197 256.351ZM606.657 246.167 603.895 244.359 598.962 241.135 595.811 239.064 597.591 236.356 600.734 238.423 605.67 241.647 608.432 243.457ZM587.699 233.656 583.624 230.878 578.439 227.239 577.028 226.21 578.937 223.591 580.336 224.611 580.313 224.595 585.477 228.22 585.458 228.207 589.523 230.979ZM569.205 220.381 568.154 219.581 563.118 215.547 559.097 212.133 561.195 209.663 565.196 213.062 565.161 213.032 570.165 217.039 570.134 217.015 571.169 217.802ZM551.843 205.495 548.8 202.521 544.4 197.844 542.819 195.998 545.282 193.89 546.837 195.707 546.785 195.651 551.138 200.276 551.091 200.228 554.108 203.177ZM536.677 188.359 536.347 187.933 532.769 182.694 531.094 179.982 529.545 177.283 532.357 175.67 533.891 178.346 533.865 178.301 535.506 180.96 535.466 180.897 538.998 186.067 538.944 185.992 539.243 186.382ZM525.221 168.325 524.16 165.659 523.107 162.688 526.161 161.605 527.205 164.547 527.181 164.489 528.233 167.126ZM520.533 172.752 523.677 159.076 534.035 168.545C534.695 169.148 534.74 170.173 534.136 170.834 533.533 171.494 532.508 171.54 531.848 170.936L523.54 163.342 526.213 162.509 523.691 173.478C523.491 174.35 522.621 174.895 521.749 174.694 520.877 174.494 520.333 173.624 520.533 172.752Z" fill="#0071BD" transform="matrix(1 0 0 1.00076 -302.376 -16.0384)"/><path d="M442.056 32.2791 443.32 35.9576 417.609 44.772 416.349 41.0933Z" fill="#004F84" fill-rule="evenodd" transform="matrix(1 0 0 1.00076 -302.376 -16.0384)"/><path d="M450.159 37.9705 451.42 41.6492 429.391 49.2016 428.13 45.5229Z" fill="#004F84" fill-rule="evenodd" transform="matrix(1 0 0 1.00076 -302.376 -16.0384)"/><path d="M433.259 24.6688C433.117 24.253 433.124 23.8017 433.275 23.3883 433.475 22.829 433.921 22.3887 434.486 22.1922L443.668 19.0438C444.189 18.8503 444.767 18.8838 445.259 19.136L454.439 23.7994 471.969 17.7893C478.007 16.4219 484.33 17.7009 489.315 21.2982 489.895 21.7656 490.156 22.5223 489.982 23.2479 488.247 29.1415 484.038 34.0234 478.434 36.6425L460.866 42.6652 456.508 51.9501C456.282 52.4382 455.86 52.8129 455.346 52.9854L446.164 56.1338C445.149 56.513 444.017 56.0047 443.643 54.9988 443.584 54.8411 443.546 54.6762 443.529 54.5088L442.95 48.212C442.848 47.1422 443.643 46.1882 444.722 46.0807 444.724 46.0805 444.729 46.08 444.731 46.0798 445.808 45.9754 446.761 46.7507 446.864 47.8153L447.208 51.6649 453.268 49.5871 457.651 40.2531C457.885 39.7704 458.306 39.4027 458.818 39.2359L477.166 32.9454C481.101 30.9751 484.175 27.6379 485.794 23.574 482.021 21.3591 477.547 20.6093 473.23 21.4679L454.884 27.7583C454.375 27.9409 453.817 27.9098 453.336 27.6718L444.149 22.9902 438.109 25.0614 440.162 28.2631C440.798 29.1295 440.602 30.3477 439.723 30.9843 438.846 31.6208 437.619 31.4342 436.982 30.5678 436.935 30.5025 436.89 30.4347 436.85 30.364L433.459 25.0727C433.374 24.9481 433.306 24.8121 433.259 24.6688Z" fill="#004F84" fill-rule="evenodd" transform="matrix(1 0 0 1.00076 -302.376 -16.0384)"/><path d="M474.568 25.3673 475.829 29.046 472.148 30.3079 470.887 26.6292Z" fill="#004F84" fill-rule="evenodd" transform="matrix(1 0 0 1.00076 -302.376 -16.0384)"/><path d="M438.064 50.5652 439.325 54.2439 426.089 58.7817 424.828 55.103Z" fill="#004F84" fill-rule="evenodd" transform="matrix(1 0 0 1.00076 -302.376 -16.0384)"/></g></svg>